<?xml version="1.0" encoding="utf-8"?>
<!-- Generator: Adobe Illustrator 19.1.0, SVG Export Plug-In . SVG Version: 6.00 Build 0)  -->
<svg version="1.1" id="Layer_1" xmlns="http://www.w3.org/2000/svg" xmlns:xlink="http://www.w3.org/1999/xlink" x="0px" y="0px"
	 viewBox="0 0 50 50" style="enable-background:new 0 0 50 50;" xml:space="preserve">
<style type="text/css">
	.st0{fill:#00ABEC;}
	.st1{fill:#535F68;}
	.st2{fill:none;stroke:#00ABEC;stroke-miterlimit:10;}
</style>
<g>
	<path class="st0" d="M1067.9,19.8v-4.9c0-7.6-6.2-13.8-13.8-13.8s-13.8,6.2-13.8,13.8v4.9c-1.9,0.6-3.2,2.3-3.2,4.4v18.6
		c0,2.6,2.1,4.7,4.7,4.7h24.8c2.6,0,4.7-2.1,4.7-4.7V24.2C1071.2,22.1,1069.8,20.4,1067.9,19.8z M1054.1,3.9c6,0,11,4.9,11,11v4.7
		h-21.9v-4.7C1043.1,8.8,1048,3.9,1054.1,3.9z M1068,42.8c0,0.9-0.7,1.6-1.6,1.6h-24.8c-0.9,0-1.6-0.7-1.6-1.6V24.2
		c0-0.9,0.7-1.6,1.6-1.6h24.8c0.9,0,1.6,0.7,1.6,1.6V42.8z"/>
	<path class="st0" d="M1057.2,28.8c0-1.7-1.4-3.1-3.1-3.1s-3.1,1.4-3.1,3.1c0,1.3,0.8,2.4,1.9,2.8l-1.1,6.5h4.7l-1.1-6.5
		C1056.4,31.2,1057.2,30.1,1057.2,28.8z"/>
</g>
<g>
	<path class="st1" d="M8.6,16l-0.4-2c-0.5-2,0.7-4,2.7-4.5l27-6.9c1-0.2,1.9-0.1,2.8,0.4c0.9,0.5,1.5,1.3,1.7,2.2l0.4,2L8.6,16z
		 M38.7,3.9c-0.2,0-0.3,0-0.5,0.1l-27,6.9c-1.1,0.3-1.8,1.5-1.6,2.7l0.1,0.5l31.2-8l-0.1-0.6c-0.1-0.5-0.5-1-1-1.3
		C39.5,4,39.1,3.9,38.7,3.9z"/>
</g>
<g>
	<path class="st1" d="M40.9,27.9v-4.1c0-2.7-2.2-4.9-4.9-4.9H14.6l29.3-7.5l2.8,11.1c0.5,2-0.7,4-2.6,4.5L40.9,27.9z M26.5,17.4H36
		c3.5,0,6.4,2.9,6.4,6.4v2.1l1.4-0.4c1.1-0.3,1.8-1.5,1.5-2.7l-2.5-9.7L26.5,17.4z"/>
</g>
<g>
	<path class="st0" d="M35.9,45.4H8c-2.1,0-3.7-1.6-3.7-3.7V23.8c0-2.1,1.6-3.7,3.7-3.7h27.9c2.1,0,3.7,1.6,3.7,3.7v17.9
		C39.6,43.8,38,45.4,35.9,45.4z M8,21.6c-1.2,0-2.2,0.9-2.2,2.2v17.9c0,1.2,0.9,2.2,2.2,2.2h27.9c1.2,0,2.2-0.9,2.2-2.2V23.8
		c0-1.2-0.9-2.2-2.2-2.2H8z"/>
</g>
<g>
	<path class="st0" d="M25.1,28H9.6c-1.1,0-2.1-1-2.1-2.1c0-1.1,1-2.1,2.1-2.1h15.5c1.1,0,2.1,1,2.1,2.1C27.3,27.1,26.3,28,25.1,28z
		 M9.6,25.3c-0.3,0-0.6,0.3-0.6,0.6c0,0.3,0.3,0.6,0.6,0.6h15.5c0.3,0,0.6-0.3,0.6-0.6c0-0.3-0.3-0.6-0.6-0.6H9.6z"/>
</g>
<g>
	<path class="st0" d="M30.9,42.7c-3,0-5.4-2.4-5.4-5.4c0-2.9,2.4-5.3,5.4-5.3c3,0,5.4,2.4,5.4,5.4C36.3,40.3,33.9,42.7,30.9,42.7z
		 M30.9,33.5c-2.2,0-3.9,1.7-3.9,3.8c0,2.2,1.8,3.9,3.9,3.9c2.2,0,3.9-1.7,3.9-3.8C34.8,35.3,33.1,33.5,30.9,33.5z"/>
</g>
<path class="st2" d="M4.3,12.9"/>
</svg>
