<?xml version="1.0" encoding="utf-8"?>
<!-- Generator: Adobe Illustrator 19.1.0, SVG Export Plug-In . SVG Version: 6.00 Build 0)  -->
<svg version="1.1" id="Layer_1" xmlns="http://www.w3.org/2000/svg" xmlns:xlink="http://www.w3.org/1999/xlink" x="0px" y="0px"
	 viewBox="0 0 50 50" style="enable-background:new 0 0 50 50;" xml:space="preserve">
<style type="text/css">
	.st0{fill:#00ABEC;}
	.st1{fill:none;stroke:#00ABEC;stroke-miterlimit:10;}
	.st2{fill:#FFFFFF;}
</style>
<g>
	<path class="st0" d="M1067.9,19.8v-4.9c0-7.6-6.2-13.8-13.8-13.8s-13.8,6.2-13.8,13.8v4.9c-1.9,0.6-3.2,2.3-3.2,4.4v18.6
		c0,2.6,2.1,4.7,4.7,4.7h24.8c2.6,0,4.7-2.1,4.7-4.7V24.2C1071.2,22.1,1069.8,20.4,1067.9,19.8z M1054.1,3.9c6,0,11,4.9,11,11v4.7
		h-21.9v-4.7C1043.1,8.8,1048,3.9,1054.1,3.9z M1068,42.8c0,0.9-0.7,1.6-1.6,1.6h-24.8c-0.9,0-1.6-0.7-1.6-1.6V24.2
		c0-0.9,0.7-1.6,1.6-1.6h24.8c0.9,0,1.6,0.7,1.6,1.6V42.8z"/>
	<path class="st0" d="M1057.2,28.8c0-1.7-1.4-3.1-3.1-3.1s-3.1,1.4-3.1,3.1c0,1.3,0.8,2.4,1.9,2.8l-1.1,6.5h4.7l-1.1-6.5
		C1056.4,31.2,1057.2,30.1,1057.2,28.8z"/>
</g>
<path class="st1" d="M4.3,12.9"/>
<path class="st2" d="M39.7,10.1c-1.2-1.2-3.2-1.2-4.4,0L19.4,33.3l-3.3-8.5c-1.2-1.2-3.2-1.2-4.4,0c-1.2,1.2-1.2,3.2,0,4.4l5.5,10.7
	c0.6,0.6,1.4,0.9,2.2,0.9s1.6-0.3,2.2-0.9l18.1-25.5C40.9,13.2,40.9,11.3,39.7,10.1z"/>
</svg>
