<?xml version="1.0" encoding="utf-8"?>
<!-- Generator: Adobe Illustrator 19.1.0, SVG Export Plug-In . SVG Version: 6.00 Build 0)  -->
<svg version="1.1" id="Layer_1" xmlns="http://www.w3.org/2000/svg" xmlns:xlink="http://www.w3.org/1999/xlink" x="0px" y="0px"
	 viewBox="1030 0 50 50" style="enable-background:new 1030 0 50 50;" xml:space="preserve">
<style type="text/css">
	.st0{fill:#FFFFFF;}
	.st1{fill:#00ABEC;}
</style>
<g>
	<path class="st0" d="M1076.7,35.7l-1-2.4c-0.1-0.2-0.3-0.3-0.4-0.2L1073,34c-0.2,0.1-0.4,0-0.4-0.2l-0.4-1.3
		c-0.1-0.2,0-0.4,0.2-0.4l4.1-1.4c0.2-0.1,0.4,0,0.4,0.2l1.7,4.1c0.1,0.2,0,0.4-0.2,0.4l-1.2,0.5C1077,36,1076.8,35.9,1076.7,35.7z"
		/>
</g>
<ellipse class="st0" cx="1067" cy="27" rx="2.7" ry="2.7"/>
<ellipse class="st0" cx="1044.5" cy="22.6" rx="2.7" ry="2.7"/>
<path class="st1" d="M1038.6,11.9c0.2,0.1,0.5,0.1,0.6-0.1c3.8-4.6,9.5-7.6,15.9-7.6c9.1,0,16.8,6,19.5,14.3
	c0.1,0.3,0.4,0.4,0.6,0.3l1.8-0.7c0.2-0.1,0.4-0.4,0.3-0.6c-3.1-9.4-11.9-16.2-22.2-16.2c-7.3,0-13.9,3.5-18.2,8.8
	c-0.2,0.2-0.1,0.5,0.1,0.7L1038.6,11.9z"/>
<path class="st0" d="M1075.1,32.2c-0.2-0.3-0.7-0.2-0.8,0.1c-2.9,7.9-10.4,13.5-19.2,13.5c-11.3,0-20.5-9.3-20.5-20.8
	c0-0.3,0-0.6,0-0.9c0-0.3-0.2-0.5-0.5-0.5h-1.9c-0.3,0-0.5,0.2-0.5,0.5c0,0.3,0,0.6,0,1c0,13,10.5,23.7,23.4,23.7
	c9.6,0,17.8-5.9,21.4-14.3c0.1-0.2,0-0.4-0.1-0.5L1075.1,32.2z"/>
</svg>
