<?xml version="1.0" encoding="utf-8"?>
<!-- Generator: Adobe Illustrator 19.0.1, SVG Export Plug-In . SVG Version: 6.00 Build 0)  -->
<svg version="1.1" id="Layer_1" xmlns="http://www.w3.org/2000/svg" xmlns:xlink="http://www.w3.org/1999/xlink" x="0px" y="0px"
	 viewBox="-293 205 612 792" style="enable-background:new -293 205 612 792;" xml:space="preserve">
<style type="text/css">
	.st0{fill:#00ABEC;}
	.st1{fill:#FFFFFF;}
</style>
<g>
	<g>
		<path class="st0" d="M-82.8,535.6l11.4,4.8c0.8,0.3,1.7,0,2.1-0.8l5.1-10.7c0.4-0.8,1.4-1.2,2.2-0.8l5.7,2.8
			c0.8,0.4,1.1,1.4,0.8,2.2l-9.1,18.9c-0.4,0.8-1.3,1.1-2.1,0.8l-19.7-8.2c-0.8-0.3-1.2-1.3-0.9-2.2l2.4-5.9
			C-84.6,535.7-83.7,535.3-82.8,535.6z"/>
	</g>
	<ellipse class="st1" cx="-62.7" cy="577.6" rx="12.9" ry="13"/>
	<ellipse class="st0" cx="-268" cy="536.4" rx="12.9" ry="13"/>
	<path class="st0" d="M-248.7,511.4c1,0.7,2.3,0.4,3-0.5c18-22.2,45.4-36.4,75.9-36.4c43.5,0,80.4,28.8,93.3,68.5
		c0.4,1.2,1.8,1.9,3,1.4l8.5-3.2c1.2-0.4,1.8-1.7,1.4-2.9c-14.7-45.1-56.8-77.7-106.1-77.7c-35.2,0-66.6,16.5-87.1,42.3
		c-0.8,1.1-0.6,2.6,0.5,3.4L-248.7,511.4z"/>
	<path class="st1" d="M-73.9,608.2c-1.1-1.4-3.3-1.1-3.9,0.6c-14,37.6-49.9,64.5-91.9,64.5c-54.1,0-98.2-44.6-98.2-99.4
		c0-1.5,0-3,0.1-4.5c0.1-1.3-1-2.4-2.3-2.4h-9.1c-1.2,0-2.2,1-2.3,2.2c-0.1,1.5-0.1,3.1-0.1,4.7c0,62.4,50.2,113.2,111.8,113.2
		c45.9,0,85.4-28.1,102.6-68.2c0.3-0.8,0.2-1.7-0.3-2.4L-73.9,608.2z"/>
	<path class="st1" d="M-6.2,618c-9.9,0-23.3-1-27.5-1.7c-2.4-0.4-3.6-1.6-3.6-4.4v-95.2c0-2.8,1.3-4,3.6-4.4
		c4.2-0.7,17.6-1.7,27.5-1.7c27.9,0,43.9,15.3,43.9,43.3v20.8C37.7,602.8,21.8,618-6.2,618z M18.4,553.9c0-21.2-10.6-26.7-24.6-26.7
		c-5.2,0-8.8,0.3-11.7,0.4V601c2.9,0.1,6.6,0.4,11.7,0.4c14,0,24.6-5.5,24.6-26.7V553.9z"/>
	<path class="st0" d="M213.7,585.9h-43.8v0.4c0,7.9,3.2,17.3,16.1,17.3c9.8,0,19.1-0.8,24.7-1.4c0.1,0,0.3,0,0.4,0
		c1.3,0,2.4,0.7,2.4,2v9c0,2.2-0.4,3.1-2.8,3.5c-8.7,1.6-14,2.3-26.1,2.3c-13.4,0-32.5-7.3-32.5-34.2v-10.1
		c0-21.2,11.7-34.6,32.2-34.6c20.7,0,32,14.3,32,34.6v7.6C216.3,584.7,215.5,585.9,213.7,585.9z M198.5,572.6
		c0-10.6-5.8-16.7-14.1-16.7c-8.3,0-14.4,6-14.4,16.7v0.5h28.5V572.6z"/>
	<path class="st0" d="M286.8,615.3c0.1,0.3,0.3,0.5,0.3,1c0,1-0.9,1.8-2,1.8h-15.3c-1.5,0-2.2-0.4-3.6-2.7l-15.3-24l-14.5,24
		c-1.5,2.3-2.2,2.7-3.6,2.7H219c-1.1,0-1.6-0.7-1.6-1.5c0-0.4,0.1-0.8,0.4-1.2l24.1-36.9L219,544c-0.1-0.3-0.3-0.5-0.3-0.8
		c0-1,0.9-1.9,2.1-1.9h15.3c1.5,0,2.2,0.7,3.5,2.7L286.8,615.3z"/>
	<path class="st1" d="M140.7,618h-12.4c-1.5,0-2.7-1.4-2.7-2.9v-44.3c0-11.8-1.1-15.2-11.4-15.2c-4.6,0-9.5,1.9-15.2,4.9v54.9
		c0,1.5-1.2,2.9-2.7,2.9H83.9c-1.5,0-2.7-1.4-2.7-2.9V544c0-1.5,1.2-2.7,2.7-2.7h11.7c1.5,0,2.7,1.2,2.7,2.7v2.9
		c7.8-5,12.9-6.5,21.8-6.5c19.3,0,23.2,13.2,23.2,30.5v44.3C143.4,616.6,142.2,618,140.7,618z"/>
	<path class="st1" d="M67.4,615.5c0,1.5-0.1,2.9-1.6,2.9H53.4c-1.5,0-2.7-1.4-2.7-2.9v-62.9c0-1.5,1.2-2.7,2.7-2.7h11.7
		c1.5,0,2.3,1.2,2.3,2.7V615.5z"/>
	<ellipse class="st1" cx="59.1" cy="526.4" rx="13" ry="13.3"/>
	<ellipse class="st0" cx="270" cy="543.9" rx="13.4" ry="13.6"/>
	<g>
		<path class="st1" d="M-12.1,661.9h-3.3c-0.4,0-0.7-0.4-0.7-0.8v-12.4c0-2.8-0.6-3.6-2.6-3.6c-0.7,0-2.1,0.2-3.4,0.9
			c0.1,0.8,0.1,1.7,0.1,2.6V661c0,0.4-0.3,0.8-0.7,0.8H-26c-0.4,0-0.7-0.4-0.7-0.8v-12.4c0-2.8-0.5-3.6-2.5-3.6
			c-0.8,0-1.8,0.4-3.3,1.2V661c0,0.4-0.3,0.8-0.7,0.8h-3.3c-0.4,0-0.7-0.4-0.7-0.8v-19c0-0.4,0.3-0.7,0.7-0.7h3.1
			c0.4,0,0.7,0.3,0.7,0.7v0.8c1.5-1,3-1.8,5.2-1.8c2.1,0,3.4,0.6,4.2,1.6c1.8-1,3.5-1.6,6-1.6c4.9,0,6,3.4,6,7.7v12.4
			C-11.4,661.5-11.7,661.9-12.1,661.9z"/>
		<path class="st1" d="M9.3,661.9H6c-0.4,0-0.7-0.3-0.7-0.7v-0.8c-1.9,1.2-3.4,1.8-5.7,1.8c-1.8,0-3.4-0.5-4.4-1.5
			c-1.3-1.4-1.8-3.6-1.8-6.7v-12c0-0.4,0.3-0.8,0.7-0.8h3.3c0.4,0,0.7,0.4,0.7,0.8v12c0,1.8,0.1,2.9,0.8,3.5
			c0.5,0.4,1.1,0.7,2.2,0.7c1.3,0,3.1-0.9,4.1-1.5V642c0-0.4,0.3-0.8,0.7-0.8h3.3c0.4,0,0.7,0.4,0.7,0.8v19.1
			C10,661.6,9.7,661.9,9.3,661.9z"/>
		<path class="st1" d="M30.7,653.3H18.9v0.1c0,2.1,0.9,4.6,4.3,4.6c2.6,0,5.1-0.2,6.7-0.4H30c0.4,0,0.7,0.2,0.7,0.5v2.4
			c0,0.6-0.1,0.8-0.8,1c-2.3,0.4-3.8,0.6-7,0.6c-3.6,0-8.7-2-8.7-9.2v-2.7c0-5.7,3.1-9.3,8.7-9.3s8.6,3.8,8.6,9.3v2.1
			C31.4,652.9,31.2,653.3,30.7,653.3z M26.6,649.7c0-2.9-1.6-4.5-3.8-4.5c-2.2,0-3.9,1.6-3.9,4.5v0.1h7.7L26.6,649.7L26.6,649.7z
			 M28.7,633.9l-4.3,4.5c-0.3,0.3-0.4,0.5-0.9,0.5h-3.1c-0.2,0-0.3-0.1-0.3-0.3c0-0.1,0-0.3,0.1-0.4l3.4-4.4
			c0.3-0.4,0.5-0.5,0.9-0.5h3.8c0.3,0,0.4,0.1,0.4,0.3C28.9,633.7,28.8,633.8,28.7,633.9z"/>
		<path class="st1" d="M51.4,642.1l-4.6,16.7c-0.7,2.7-2.7,3.4-4.5,3.4s-3.8-0.7-4.5-3.4l-4.6-16.7c0-0.1,0-0.2,0-0.3
			c0-0.3,0.3-0.6,0.6-0.6h3.6c0.3,0,0.6,0.3,0.7,0.7l3.5,15.3c0.1,0.7,0.4,0.9,0.7,0.9c0.3,0,0.5-0.2,0.7-0.9l3.5-15.3
			c0.1-0.5,0.4-0.7,0.8-0.7h3.6c0.3,0,0.6,0.3,0.6,0.6C51.5,641.9,51.5,642,51.4,642.1z"/>
		<path class="st1" d="M69.9,653.3H58.1v0.1c0,2.1,0.9,4.6,4.3,4.6c2.6,0,5.1-0.2,6.7-0.4h0.1c0.4,0,0.7,0.2,0.7,0.5v2.4
			c0,0.6-0.1,0.8-0.8,1c-2.3,0.4-3.8,0.6-7,0.6c-3.6,0-8.7-2-8.7-9.2v-2.7c0-5.7,3.1-9.3,8.7-9.3s8.6,3.8,8.6,9.3v2.1
			C70.6,652.9,70.4,653.3,69.9,653.3z M65.8,649.7c0-2.9-1.6-4.5-3.8-4.5c-2.2,0-3.9,1.6-3.9,4.5v0.1h7.7L65.8,649.7L65.8,649.7z"/>
		<path class="st1" d="M84.7,661.9c-0.9,0.1-1.7,0.3-2.5,0.3c-4.1,0-5.7-0.9-5.7-5.8v-11.5l-3.4-0.5c-0.4-0.1-0.7-0.3-0.7-0.7V642
			c0-0.4,0.3-0.7,0.7-0.7h3.4v-3c0-0.4,0.3-0.7,0.7-0.7l3.4-0.6h0.1c0.3,0,0.6,0.2,0.6,0.5v3.8h3.3c0.4,0,0.7,0.3,0.7,0.7v2.2
			c0,0.4-0.3,0.7-0.7,0.7h-3.3v11.5c0,1.8,0.1,2.1,1.4,2.1h1.9c0.5,0,0.8,0.2,0.8,0.5v2.3C85.4,661.7,85.2,661.9,84.7,661.9z"/>
		<path class="st1" d="M104.6,653.3H92.8v0.1c0,2.1,0.9,4.6,4.3,4.6c2.6,0,5.1-0.2,6.7-0.4h0.1c0.4,0,0.7,0.2,0.7,0.5v2.4
			c0,0.6-0.1,0.8-0.8,1c-2.3,0.4-3.8,0.6-7,0.6c-3.6,0-8.7-2-8.7-9.2v-2.7c0-5.7,3.1-9.3,8.7-9.3s8.6,3.8,8.6,9.3v2.1
			C105.3,652.9,105.1,653.3,104.6,653.3z M100.5,649.7c0-2.9-1.6-4.5-3.8-4.5c-2.2,0-3.9,1.6-3.9,4.5v0.1h7.7L100.5,649.7
			L100.5,649.7z"/>
		<path class="st1" d="M125,662.2c-1.4,0-4.4-0.2-6.5-0.7c-0.4-0.1-0.7-0.4-0.7-0.8v-2.2c0-0.3,0.3-0.6,0.6-0.6c0.1,0,0.1,0,0.1,0
			c1.7,0.2,5,0.4,6.1,0.4c2.2,0,2.6-0.8,2.6-1.8c0-0.7-0.4-1.1-1.6-1.9l-5-3.1c-1.8-1.1-3-2.9-3-5.1c0-3.7,2.3-5.5,6.9-5.5
			c2.9,0,4.6,0.3,6.4,0.7c0.4,0.1,0.7,0.4,0.7,0.8v2.1c0,0.4-0.2,0.7-0.6,0.7c-0.1,0-0.1,0-0.1,0c-1-0.1-3.9-0.4-6-0.4
			c-1.7,0-2.5,0.4-2.5,1.5c0,0.6,0.5,1,1.4,1.5l4.7,2.9c3,1.9,3.5,3.7,3.5,5.6C132.1,659.7,129.8,662.2,125,662.2z"/>
		<path class="st1" d="M140.4,638.5h-3.5c-0.4,0-0.8-0.3-0.8-0.7v-3.2c0-0.4,0.4-0.7,0.8-0.7h3.5c0.4,0,0.7,0.3,0.7,0.7v3.2
			C141.1,638.2,140.8,638.5,140.4,638.5z M140.3,661.9H137c-0.4,0-0.7-0.4-0.7-0.8V642c0-0.4,0.3-0.7,0.7-0.7h3.3
			c0.4,0,0.7,0.3,0.7,0.7v19.1C141,661.5,140.6,661.9,140.3,661.9z"/>
		<path class="st1" d="M161.8,661.9h-3.3c-0.4,0-0.7-0.4-0.7-0.8v-11.9c0-3.2-0.3-4.1-3.1-4.1c-1.2,0-2.6,0.5-4.1,1.3v14.7
			c0,0.4-0.3,0.8-0.7,0.8h-3.3c-0.4,0-0.7-0.4-0.7-0.8V642c0-0.4,0.3-0.7,0.7-0.7h3.1c0.4,0,0.7,0.3,0.7,0.7v0.8
			c2.1-1.4,3.5-1.8,5.9-1.8c5.2,0,6.3,3.6,6.3,8.2v11.9C162.5,661.5,162.2,661.9,161.8,661.9z"/>
		<path class="st1" d="M192.2,653.3h-11.8v0.1c0,2.1,0.9,4.6,4.3,4.6c2.6,0,5.1-0.2,6.7-0.4h0.1c0.4,0,0.7,0.2,0.7,0.5v2.4
			c0,0.6-0.1,0.8-0.8,1c-2.3,0.4-3.8,0.6-7,0.6c-3.6,0-8.7-2-8.7-9.2v-2.7c0-5.7,3.1-9.3,8.7-9.3s8.6,3.8,8.6,9.3v2.1
			C192.9,652.9,192.7,653.3,192.2,653.3z M188.1,649.7c0-2.9-1.6-4.5-3.8-4.5c-2.2,0-3.9,1.6-3.9,4.5v0.1h7.7L188.1,649.7
			L188.1,649.7z"/>
		<path class="st1" d="M206.9,637.3h-1.6c-1.7,0-2.1,0.4-2.1,2.2v1.8h3.5c0.4,0,0.7,0.3,0.7,0.7v2.2c0,0.4-0.3,0.7-0.7,0.7h-3.5
			v16.3c0,0.4-0.3,0.8-0.7,0.8h-3.3c-0.4,0-0.8-0.4-0.8-0.8v-16.3l-3.2-0.5c-0.4-0.1-0.7-0.3-0.7-0.7V642c0-0.4,0.3-0.7,0.7-0.7h3.2
			v-1.8c0-4.7,2.5-5.9,6.3-5.9c0.9,0,1.5,0.1,2.2,0.3c0.3,0.1,0.7,0.3,0.7,0.6v2.2C207.5,637.1,207.2,637.3,206.9,637.3z"/>
		<path class="st1" d="M225.8,653.3H214v0.1c0,2.1,0.9,4.6,4.3,4.6c2.6,0,5.1-0.2,6.7-0.4h0.1c0.4,0,0.7,0.2,0.7,0.5v2.4
			c0,0.6-0.1,0.8-0.8,1c-2.3,0.4-3.8,0.6-7,0.6c-3.6,0-8.7-2-8.7-9.2v-2.7c0-5.7,3.1-9.3,8.7-9.3c5.6,0,8.6,3.8,8.6,9.3v2.1
			C226.5,652.9,226.3,653.3,225.8,653.3z M221.7,649.7c0-2.9-1.6-4.5-3.8-4.5s-3.9,1.6-3.9,4.5v0.1h7.7V649.7z"/>
		<path class="st1" d="M242.7,661.7c-0.8,0.2-2.5,0.5-4.7,0.5c-4.7,0-8.2-2.9-8.2-8.9v-3.4c0-6,3.5-8.9,8.2-8.9
			c2.2,0,3.8,0.3,4.7,0.5c0.6,0.1,0.8,0.4,0.8,1v2.4c0,0.4-0.3,0.5-0.7,0.5h-0.1c-1.4-0.2-2.3-0.3-4.7-0.3c-1.7,0-3.5,1-3.5,4.8v3.4
			c0,3.8,1.8,4.8,3.5,4.8c2.3,0,3.2-0.1,4.7-0.3h0.1c0.4,0,0.7,0.2,0.7,0.5v2.4C243.5,661.4,243.4,661.6,242.7,661.7z"/>
		<path class="st1" d="M258.2,661.9c-0.9,0.1-1.7,0.3-2.5,0.3c-4.1,0-5.7-0.9-5.7-5.8v-11.5l-3.4-0.5c-0.4-0.1-0.7-0.3-0.7-0.7V642
			c0-0.4,0.3-0.7,0.7-0.7h3.4v-3c0-0.4,0.3-0.7,0.7-0.7l3.4-0.6h0.1c0.3,0,0.6,0.2,0.6,0.5v3.8h3.3c0.4,0,0.7,0.3,0.7,0.7v2.2
			c0,0.4-0.3,0.7-0.7,0.7h-3.3v11.5c0,1.8,0.1,2.1,1.4,2.1h1.9c0.5,0,0.8,0.2,0.8,0.5v2.3C258.9,661.7,258.7,661.9,258.2,661.9z"/>
		<path class="st1" d="M266.4,638.5h-3.5c-0.4,0-0.8-0.3-0.8-0.7v-3.2c0-0.4,0.4-0.7,0.8-0.7h3.5c0.4,0,0.7,0.3,0.7,0.7v3.2
			C267.1,638.2,266.8,638.5,266.4,638.5z M266.3,661.9H263c-0.4,0-0.7-0.4-0.7-0.8V642c0-0.4,0.3-0.7,0.7-0.7h3.3
			c0.4,0,0.7,0.3,0.7,0.7v19.1C267,661.5,266.7,661.9,266.3,661.9z"/>
		<path class="st1" d="M288.5,642.1l-4.6,16.7c-0.7,2.7-2.7,3.4-4.5,3.4s-3.8-0.7-4.5-3.4l-4.6-16.7c0-0.1,0-0.2,0-0.3
			c0-0.3,0.3-0.6,0.6-0.6h3.6c0.3,0,0.6,0.3,0.7,0.7l3.5,15.3c0.1,0.7,0.4,0.9,0.7,0.9s0.5-0.2,0.7-0.9l3.5-15.3
			c0.1-0.5,0.4-0.7,0.8-0.7h3.6c0.3,0,0.6,0.3,0.6,0.6C288.5,641.9,288.5,642,288.5,642.1z"/>
		<path class="st1" d="M298.9,662.2c-5.7,0-8.6-3.9-8.6-9.1v-3c0-5.2,3-9.1,8.6-9.1c5.7,0,8.6,3.9,8.6,9.1v3
			C307.5,658.3,304.5,662.2,298.9,662.2z M302.7,650.1c0-3-1.3-4.9-3.9-4.9c-2.5,0-3.9,1.9-3.9,4.9v3c0,3,1.3,4.9,3.9,4.9
			c2.5,0,3.9-1.9,3.9-4.9V650.1z"/>
	</g>
</g>
</svg>
