<?xml version="1.0" encoding="utf-8"?>
<!-- Generator: Adobe Illustrator 19.1.0, SVG Export Plug-In . SVG Version: 6.00 Build 0)  -->
<svg version="1.1" id="Layer_1" xmlns="http://www.w3.org/2000/svg" xmlns:xlink="http://www.w3.org/1999/xlink" x="0px" y="0px"
	 viewBox="0 0 170 50" style="enable-background:new 0 0 170 50;" xml:space="preserve">
<style type="text/css">
	.st0{fill:#00ABEC;}
</style>
<g>
	<ellipse class="st0" cx="161.9" cy="23.7" rx="3.1" ry="3.1"/>
	<ellipse class="st0" cx="7.4" cy="26.9" rx="3.1" ry="3.1"/>
	<path class="st0" d="M153.2,26c-1.4-0.6-2.7-1.3-4.1-1.9c-1.9-0.9-3.6,1.9-1.7,2.8c0.2,0.1,0.4,0.2,0.7,0.3
		c-11.6,3.9-24,4.6-36.1,4.1c-10.8-0.4-21.5-1.9-32-4.1c-2-0.4-4.1-0.9-6.1-1.4c-2-0.5-2.9,2.6-0.9,3.2c6,1.6,12.2,2.7,18.3,3.6
		c12.9,1.9,26,2.8,39,1.6c7.7-0.8,15.3-2.3,22.5-5.2C154,28.5,154.6,26.7,153.2,26z"/>
	<path class="st0" d="M95.3,24.8c2,0.5,2.9-2.6,0.9-3.2C90.2,20,84,18.9,77.9,18c-12.9-1.9-26-2.8-39-1.6
		c-7.7,0.8-15.3,2.3-22.5,5.2c-1.2,0.5-1.8,2.3-0.4,3c1.4,0.6,2.7,1.3,4.1,1.9c1.9,0.9,3.6-1.9,1.7-2.8c-0.2-0.1-0.4-0.2-0.7-0.3
		c11.6-3.9,24-4.6,36.1-4.1c10.8,0.4,21.5,1.9,32,4.1C91.2,23.8,93.3,24.2,95.3,24.8z"/>
</g>
</svg>
