<?xml version="1.0" encoding="utf-8"?>
<!-- Generator: Adobe Illustrator 19.1.0, SVG Export Plug-In . SVG Version: 6.00 Build 0)  -->
<svg version="1.1" id="Layer_1" xmlns="http://www.w3.org/2000/svg" xmlns:xlink="http://www.w3.org/1999/xlink" x="0px" y="0px"
	 viewBox="1030 -60 50 170" style="enable-background:new 1030 -60 50 170;" xml:space="preserve">
<style type="text/css">
	.st0{fill:#00ABEC;}
</style>
<g>
	<ellipse class="st0" cx="1053.4" cy="-54.2" rx="3.2" ry="3.2"/>
	<ellipse class="st0" cx="1056.6" cy="104.2" rx="3.2" ry="3.2"/>
	<g>
		<g>
			<path class="st0" d="M1056.7-39.5c0.7-1.4,1.3-2.8,2-4.2c-1-0.1-2.1-0.3-3.1-0.4c5.2,12.9,6.2,27.2,5.7,40.9
				c-0.4,11-1.9,22-4.2,32.8c-0.4,2.1-0.9,4.2-1.5,6.3c-0.6,2.1,2.7,3,3.2,0.9c1.6-6.1,2.8-12.5,3.7-18.8c2-13.2,2.9-26.7,1.6-40
				c-0.8-7.9-2.3-15.7-5.3-23.1c-0.5-1.2-2.4-1.9-3.1-0.4c-0.7,1.4-1.3,2.8-2,4.2C1052.8-39.2,1055.7-37.5,1056.7-39.5L1056.7-39.5z
				"/>
		</g>
		<g>
			<path class="st0" d="M1053.3,89.5c-0.7,1.4-1.3,2.8-2,4.2c1,0.1,2.1,0.3,3.1,0.4c-5.2-12.9-6.2-27.2-5.7-40.9
				c0.4-11,1.9-22,4.2-32.8c0.4-2.1,0.9-4.2,1.5-6.3c0.6-2.1-2.7-3-3.2-0.9c-1.6,6.1-2.8,12.5-3.7,18.8c-2,13.2-2.9,26.7-1.6,40
				c0.8,7.9,2.3,15.7,5.3,23.1c0.5,1.2,2.4,1.9,3.1,0.4c0.7-1.4,1.3-2.8,2-4.2C1057.2,89.2,1054.3,87.5,1053.3,89.5L1053.3,89.5z"/>
		</g>
	</g>
</g>
</svg>
