<?xml version="1.0" encoding="utf-8"?>
<!-- Generator: Adobe Illustrator 19.1.0, SVG Export Plug-In . SVG Version: 6.00 Build 0)  -->
<svg version="1.1" id="Layer_1" xmlns="http://www.w3.org/2000/svg" xmlns:xlink="http://www.w3.org/1999/xlink" x="0px" y="0px"
	 viewBox="970 0 170 50" style="enable-background:new 970 0 170 50;" xml:space="preserve">
<style type="text/css">
	.st0{fill:#00ABEC;}
	.st1{fill:#FFFFFF;}
</style>
<ellipse class="st0" cx="1133.8" cy="24.4" rx="3.2" ry="3.2"/>
<ellipse class="st0" cx="975.4" cy="27.7" rx="3.2" ry="3.2"/>
<g>
	<path class="st1" d="M1119.1,27.7c1.4,0.7,2.8,1.3,4.2,2c0.1-1,0.3-2.1,0.4-3.1c-12.9,5.2-27.2,6.2-40.9,5.7
		c-11-0.4-22-1.9-32.8-4.2c-2.1-0.4-4.2-0.9-6.3-1.5c-2.1-0.6-3,2.7-0.9,3.2c6.1,1.6,12.5,2.8,18.8,3.7c13.2,2,26.7,2.9,40,1.6
		c7.9-0.8,15.7-2.3,23.1-5.3c1.2-0.5,1.9-2.4,0.4-3.1c-1.4-0.7-2.8-1.3-4.2-2C1118.8,23.9,1117.1,26.8,1119.1,27.7L1119.1,27.7z"/>
</g>
<g>
	<path class="st0" d="M990.1,24.4c-1.4-0.7-2.8-1.3-4.2-2c-0.1,1-0.3,2.1-0.4,3.1c12.9-5.2,27.2-6.2,40.9-5.7
		c11,0.4,22,1.9,32.8,4.2c2.1,0.4,4.2,0.9,6.3,1.5c2.1,0.6,3-2.7,0.9-3.2c-6.1-1.6-12.5-2.8-18.8-3.7c-13.2-2-26.7-2.9-40-1.6
		c-7.9,0.8-15.7,2.3-23.1,5.3c-1.2,0.5-1.9,2.4-0.4,3.1c1.4,0.7,2.8,1.3,4.2,2C990.4,28.2,992.1,25.3,990.1,24.4L990.1,24.4z"/>
</g>
</svg>
