<?xml version="1.0" encoding="utf-8"?>
<!-- Generator: Adobe Illustrator 19.1.0, SVG Export Plug-In . SVG Version: 6.00 Build 0)  -->
<svg version="1.1" id="Layer_1" xmlns="http://www.w3.org/2000/svg" xmlns:xlink="http://www.w3.org/1999/xlink" x="0px" y="0px"
	 viewBox="0 0 50 50" style="enable-background:new 0 0 50 50;" xml:space="preserve">
<style type="text/css">
	.st0{fill:#00ABEC;}
	.st1{opacity:0.2;}
	.st2{opacity:0.6;}
</style>
<g>
	<path class="st0" d="M1067.9,19.8v-4.9c0-7.6-6.2-13.8-13.8-13.8s-13.8,6.2-13.8,13.8v4.9c-1.9,0.6-3.2,2.3-3.2,4.4v18.6
		c0,2.6,2.1,4.7,4.7,4.7h24.8c2.6,0,4.7-2.1,4.7-4.7V24.2C1071.2,22.1,1069.8,20.4,1067.9,19.8z M1054.1,3.9c6,0,11,4.9,11,11v4.7
		h-21.9v-4.7C1043.1,8.8,1048,3.9,1054.1,3.9z M1068,42.8c0,0.9-0.7,1.6-1.6,1.6h-24.8c-0.9,0-1.6-0.7-1.6-1.6V24.2
		c0-0.9,0.7-1.6,1.6-1.6h24.8c0.9,0,1.6,0.7,1.6,1.6V42.8z"/>
	<path class="st0" d="M1057.2,28.8c0-1.7-1.4-3.1-3.1-3.1s-3.1,1.4-3.1,3.1c0,1.3,0.8,2.4,1.9,2.8l-1.1,6.5h4.7l-1.1-6.5
		C1056.4,31.2,1057.2,30.1,1057.2,28.8z"/>
</g>
<g class="st1">
	<path class="st0" d="M9.3,27.3l3.1-3.3c0.2-0.2,0.2-0.6,0-0.8l-3-3.1c-0.2-0.2-0.2-0.6,0-0.8l1.7-1.6c0.2-0.2,0.6-0.2,0.8,0
		l5.3,5.5c0.2,0.2,0.2,0.6,0,0.8l-5.3,5.6c-0.2,0.2-0.6,0.3-0.8,0l-1.7-1.6C9.1,27.9,9.1,27.5,9.3,27.3z"/>
</g>
<g class="st2">
	<path class="st0" d="M21.1,27.3l3.1-3.3c0.2-0.2,0.2-0.6,0-0.8l-3-3.1c-0.2-0.2-0.2-0.6,0-0.8l1.7-1.6c0.2-0.2,0.6-0.2,0.8,0
		l5.3,5.5c0.2,0.2,0.2,0.6,0,0.8l-5.3,5.6c-0.2,0.2-0.6,0.3-0.8,0l-1.7-1.6C20.9,27.9,20.8,27.5,21.1,27.3z"/>
</g>
<g>
	<path class="st0" d="M32.8,27.3l3.1-3.3c0.2-0.2,0.2-0.6,0-0.8l-3-3.1c-0.2-0.2-0.2-0.6,0-0.8l1.7-1.6c0.2-0.2,0.6-0.2,0.8,0
		l5.3,5.5c0.2,0.2,0.2,0.6,0,0.8l-5.3,5.6c-0.2,0.2-0.6,0.3-0.8,0l-1.7-1.6C32.6,27.9,32.6,27.5,32.8,27.3z"/>
</g>
</svg>
