<?xml version="1.0" encoding="utf-8"?>
<!-- Generator: Adobe Illustrator 19.1.0, SVG Export Plug-In . SVG Version: 6.00 Build 0)  -->
<svg version="1.1" xmlns="http://www.w3.org/2000/svg" xmlns:xlink="http://www.w3.org/1999/xlink" x="0px" y="0px"
	 viewBox="-275 -275 600 600" style="enable-background:new -275 -275 600 600;" xml:space="preserve">
<style type="text/css">
	.st0{fill:#00ABEC;}
	.st1{fill:none;stroke:#535F68;stroke-miterlimit:10;}
</style>
<g id="Layer_1">
	<g>
		<path class="st0" d="M1067.9,19.8v-4.9c0-7.6-6.2-13.8-13.8-13.8s-13.8,6.2-13.8,13.8v4.9c-1.9,0.6-3.2,2.3-3.2,4.4v18.6
			c0,2.6,2.1,4.7,4.7,4.7h24.8c2.6,0,4.7-2.1,4.7-4.7V24.2C1071.2,22.1,1069.8,20.4,1067.9,19.8z M1054.1,3.9c6,0,11,4.9,11,11v4.7
			h-21.9v-4.7C1043.1,8.8,1048,3.9,1054.1,3.9z M1068,42.8c0,0.9-0.7,1.6-1.6,1.6h-24.8c-0.9,0-1.6-0.7-1.6-1.6V24.2
			c0-0.9,0.7-1.6,1.6-1.6h24.8c0.9,0,1.6,0.7,1.6,1.6V42.8z"/>
		<path class="st0" d="M1057.2,28.8c0-1.7-1.4-3.1-3.1-3.1s-3.1,1.4-3.1,3.1c0,1.3,0.8,2.4,1.9,2.8l-1.1,6.5h4.7l-1.1-6.5
			C1056.4,31.2,1057.2,30.1,1057.2,28.8z"/>
	</g>
</g>
<g id="Layer_2">
	<path class="st1" d="M117.7,272.6H-54.4c-21.4,0-38.7-17.3-38.7-38.7v-421.2c0-21.4,17.3-38.7,38.7-38.7h172.1
		c21.4,0,38.7,17.3,38.7,38.7v421.2C156.4,255.2,139.1,272.6,117.7,272.6z"/>
	<path class="st1" d="M49.3-180.5H12.7c-1.5,0-2.7-1.2-2.7-2.8l0,0c0-1.5,1.2-2.8,2.7-2.8h36.5c1.5,0,2.7,1.2,2.7,2.8l0,0
		C52-181.7,50.8-180.5,49.3-180.5z"/>
	<path class="st1" d="M-3.4-179.2L-3.4-179.2c-1.9,0-3.5-1.6-3.5-3.5v0c0-1.9,1.6-3.5,3.5-3.5h0c1.9,0,3.5,1.6,3.5,3.5v0
		C0.1-180.7-1.4-179.2-3.4-179.2z"/>
	<path class="st1" d="M133.4,235H-71.9c-5.6,0-10.1-4.5-10.1-10.1v-374.6c0-5.6,4.5-10.1,10.1-10.1h205.4c5.6,0,10.1,4.5,10.1,10.1
		v374.6C143.5,230.5,139,235,133.4,235z"/>
	<path class="st1" d="M10.7,241.7c0,0,2.7,16.5,20.6,16.5S52,241.7,52,241.7"/>
	<path class="st1" d="M155.8-163c0,0,6.2-0.8,6.2,6.3c0,8,0,39.2,0,41.5c0,2.3,0,6.3-6.2,6.3"/>
	<path class="st1" d="M-93.8-126.4c0,0-4.2,0.4-4.2-3.3c0-4.2,0-20.5,0-21.7s0-3.3,4.2-3.3"/>
	<path class="st1" d="M-93.8-80.7c0,0-4.2,0.4-4.2-3.3c0-4.2,0-20.5,0-21.7c0-1.2,0-3.3,4.2-3.3"/>
</g>
</svg>
